<svg xmlns="http://www.w3.org/2000/svg" xmlns:serif="http://www.serif.com/" fill-rule="evenodd" stroke-linejoin="round" stroke-miterlimit="2" clip-rule="evenodd" viewBox="0 0 2084 417">
  <path id="background" fill="#153144" d="M0 0h2083.3v416.7H0z"/>
  <g id="letter_shadow" fill="#427591">
    <path id="D" fill-rule="nonzero" d="M509.9 50.4c30.4-5 63.9-8.1 90.5-8.1 81 0 140.6 34 170.6 146 16.9 63.2 12.7 99.9-7 120.4 0 0-31.7 38.7-34 41-17.4 17.6-46.8 23-84.2 23-26.2 0-56.9-2.8-90.5-5.7a6.7 6.7 0 0 1-6-4.7c-12-44.8-24-85.8-36.7-133.4-12.8-47.7-23.3-90.6-36-138.2l33.3-40.3z"/>
    <path id="V" d="M892.5 45.5c13.4-.7 21-1 34-1 16.2 0 34.7.5 51 1 2.3 0 4.4 1.8 5 4 .6 2 1.2 10.1 1.7 15 9.3 87 14.4 179 17.5 266.8l-33.4 40.3c-19.8 1-39.2 1-60.4 1-22.3 0-43.8-.2-65.9-1-2.6 0-5.6-2.2-6.9-4.8-45.3-91.1-92.7-188.4-131.5-280.9L737 45.6h1.4c14.2-.8 26.3-1 41.6-1 16.2 0 30.5 0 47 1 2.7.2 5.7 2.1 6.9 4.7a2213 2213 0 0 1 23.8 53.1c-.4-5.8-.9-11.6-1.2-17.5l33.3-40.3 2.7-.1z"/>
    <path id="O" d="M1031.6 70.1c13.3-17.2 34.3-26.6 61.9-28 90.4 0 142.7 36 172.2 146.2 15 56 10.5 96.2-9.7 120 0 0-33.2 40.2-34 41-13.5 15.6-33.8 24-60 25.3-90.2 0-141.6-35.7-171.2-146-14.6-54.7-11-94.2 7.6-118.3l33.2-40.2z"/>
    <path id="R" fill-rule="nonzero" d="M1259.9 50c30.3-4.8 68.1-8 94.6-8 71.4 0 121.3 5.5 142 82.5 9.4 35.2-2.7 61.9-30 76.6 12 3.9 23.2 12 32.5 23 28.6 36.9 48.4 71.2 66.6 107.4l-33.4 40.3c-15.4 1.9-32 2.7-49 2.7-12.8 0-25.7-.4-38.6-1.2-2.7-.2-6.8-2-8.5-4.8a13136 13136 0 0 1-15.5-26l-24.3 29.3c-13.8.6-27.6.9-41.5.9-16.2 0-32.5-.4-48.9-.9a6.5 6.5 0 0 1-6-4.7c-12-45-27-97-39.7-144.7-12.8-47.8-21.7-84.5-34.4-132l33.3-40.3h.8z"/>
    <path id="A" fill-rule="nonzero" d="M1666.1 319.2l1 12-33.4 40.4c-15 .7-23.3 1-39.2 1-16.1 0-32.7-.4-49-1a5.3 5.3 0 0 1-5-4c-.3-1-1.2-10-1.7-14.8-9.2-87-13.6-179.2-19.4-266.9l34.3-40.4c20.7-1 42.3-1 64.3-1 23.1 0 45.4.3 68.2 1 2.7 0 5.7 2.2 7 4.8 42 90.5 90 187 128.6 278.8l1 2.2-33.4 40.3c-14.9.7-25.4 1-41.2 1-16.2 0-30.4 0-47-1a8.7 8.7 0 0 1-6.9-4.8c-7.3-15.7-14.4-31.5-21.3-47.6h-6.9z"/>
    <path id="K" d="M1907.9 46.7a7.5 7.5 0 0 1 5-2.3 603 603 0 0 1 37.9-1.2c17 0 31.7.8 48.2 2.7 1.2 36-1.1 76-10 112.8-4.6 14.7-14 24.2-30 25.2l-.1.3-.1.4c16.8 1 32.7 10.5 45.4 25.2 28 36.3 53.3 83.8 71.3 119.8l.9 1.7-33.4 40.3a414.6 414.6 0 0 1-49.1 2.7 635 635 0 0 1-38.6-1.3c-2.7-.1-6.9-1.9-8.6-4.7-4.9-8.2-10-17-15.1-26l-24.2 29.3c-14.9.7-25.4 1-41.1 1-16.2 0-32.8-.4-49-1a6.7 6.7 0 0 1-6-4.8c-13-44.7-26.2-90.4-39-138A6274.2 6274.2 0 0 1 1736 85.9l33.3-40.3h1.4c14.2-.8 24.5-1 39.8-1 16.1 0 32.7.4 49 1 2.6 0 5.3 2.1 6 4.7a888.1 888.1 0 0 1 9.7 36l32.5-39.4.2-.1z"/>
  </g>
  <g id="letter_surface" fill="#ecede9" fill-rule="nonzero">
    <path id="D1" d="M640 188.5c-6.1-23.2-11-43.3-15.9-63h8.2c13.1 0 24 6.3 39.2 62.9 15.2 56.7 7.7 63-5.5 63h-8.2c-5.8-19.8-11.5-39.7-17.7-62.9zm-94 0c12.7 47.7 24.6 88.6 36.6 133.4a6.7 6.7 0 0 0 6 4.8c33.7 2.8 64.4 5.7 90.5 5.7 80.5 0 123.8-25 91.9-144-30-112-89.6-146.1-170.6-146.1-26.6 0-60 3.1-90.5 8 12.7 47.7 23.3 90.6 36 138.2z" serif:id="D"/>
    <path id="V1" d="M737 45.6c38.8 92.4 86.2 189.7 131.5 280.9 1.3 2.6 4.2 4.8 6.9 4.8a1913.8 1913.8 0 0 0 126.3 0c-3.1-87.7-8.2-179.8-17.5-266.8-.5-4.9-1.1-13-1.7-15-.6-2.2-2.7-4-5-4-16.3-.5-34.8-1-51-1-13.9 0-21.6.4-36.7 1 4.1 61.7 12.7 123.6 20.7 185-24.6-60.3-48.9-120.6-76.6-180.2a8.8 8.8 0 0 0-6.9-4.7c-16.5-1-30.8-1-47-1-15.8 0-28.2.3-43 1z" serif:id="V"/>
    <path id="O1" d="M1024.2 188.3c29.5 110.3 81 146 171.2 146 66.1-3.4 95.4-52.4 70.3-146C1236.2 78 1183.9 42 1093.5 42c-66.2 3.3-94.4 52.6-69.3 146.2zm99.4 0c-15.1-56.6-9.2-62.8 3.6-62.8 12.7 0 23.8 6.2 39 62.8 15.2 56.7 8.9 63-4 63-12.7 0-23.4-6.3-38.6-63z" serif:id="O"/>
    <path id="R1" d="M1293.5 182c12.8 47.8 27.7 99.8 39.8 144.7a6.5 6.5 0 0 0 6 4.8c16.4.5 32.7.8 48.8.8 14 0 27.8-.2 41.5-.8-10.2-37.3-22.6-78.5-33.6-117.5h6.3c18.6 32.6 42.9 73.5 67.2 114.1 1.6 2.9 5.8 4.6 8.5 4.8 12.8.8 25.8 1.2 38.5 1.2 17 0 33.6-.8 49-2.6A628.3 628.3 0 0 0 1499 224c-9.3-11-20.5-19-32.4-22.9 27.2-14.7 39.3-41.4 29.8-76.6-20.6-77-70.5-82.4-141.9-82.4-26.7 0-65 3.1-95.4 8 12.7 47.4 21.6 84.1 34.4 132zm86.5-26.7l-11.3-43.3c3.5-.2 7.5-.4 11.4-.4 17.3 0 24.3 8.2 28.3 23 3.3 12.4-4.8 20.7-20.2 20.7h-8.2z" serif:id="R"/>
    <path id="A1" d="M1573.8 327.3c.6 2.3 2.8 4 5.1 4 16.2.5 32.8 1 49 1 15.8 0 24-.3 39.1-1a1019 1019 0 0 0-5-52.4h44.3c7 16 14 31.9 21.4 47.6a8.7 8.7 0 0 0 6.9 4.8c16.5 1 30.8 1 47 1 15.8 0 26.3-.3 41.1-1-38.8-92.5-87.1-189.8-129.6-281-1.2-2.6-4.2-4.7-6.9-4.7a1991.6 1991.6 0 0 0-133.4 0c5.8 87.7 10.1 179.8 19.4 266.8l1.6 15zm79.8-110.3c-5.5-35.7-11.5-71.6-16.6-106.8 14.4 35.4 28.6 71.2 43.3 106.8h-26.7z" serif:id="A"/>
    <path id="K1" d="M1805.7 188.4c12.8 47.6 26 93.3 39 138a6.7 6.7 0 0 0 6 4.9c16.2.5 32.8 1 49 1 15.7 0 26.2-.3 41-1-1.6-6.9-3.3-13.7-5.2-20.5-8.5-32-18.7-64-28-96l9.1-.1c18.3 33.6 42.5 78 63.5 113.2 1.7 2.9 5.8 4.6 8.5 4.8 12.9.8 25.9 1.2 38.6 1.2 17 0 33.7-.8 49.2-2.6-18.1-36.1-43.7-84.7-72.2-121.5-12.7-14.7-28.6-24.2-45.4-25.2l-.2-.7c16.3-1 25.7-10.4 30.4-25.2A430 430 0 0 0 1999 46a410.2 410.2 0 0 0-48.2-2.7 603 603 0 0 0-38 1.2c-2.6.2-5.8 2-6 4.8-2 31.8-5 66.8-7 96.4l-10.4.1c-6.4-26.6-12.3-52.7-19.2-78.5-1.5-5.6-3-11.3-4.7-16.9a6.7 6.7 0 0 0-6-4.7c-16.3-.6-32.9-1-49-1-15.8 0-26.3.3-41.1 1 11.5 47.6 23.6 95.2 36.3 142.8z" serif:id="K"/>
  </g>
  <g id="keycap">
    <path id="kc_outline" fill="#fff" d="M396.3 398.3c-53 4.7-240.2 10.3-295.7 6.4a46.4 46.4 0 0 1-37.4-29.5c-15.5-45.3-47-198.4-55.6-242.5-1.4-7.2-.7-16.4 3.8-21.8l.6-.7 81.5-91.4c3.3-4 9.7-8 17.2-8 80.2 5.4 153 4.5 220.2 0 18.5-1.3 31.2 10 35 27.5 13.9 66.4 37.4 159.8 57.9 216.2a74.6 74.6 0 0 1 3 28c-2.7 40-7.9 94.2-7.9 94.2 0 12.4-12.2 20.7-22.6 21.6z"/>
    <path id="kc_stroke" fill="#153144" d="M382.7 386.8c-49 4.4-222 9.7-273.3 6a43 43 0 0 1-34.6-27.7c-14.3-42.6-43.3-186.4-51.3-227.8-1.3-6.8-.6-15.4 3.5-20.5l.6-.7 75.3-85.9c3-3.7 9-7.5 15.9-7.5 74 5.1 141.4 4.2 203.5 0 17-1.2 28.8 9.4 32.2 25.9 13 62.4 34.7 150.1 53.6 203.1a71.2 71.2 0 0 1 2.8 26.3c-2.5 37.6-7.3 88.5-7.3 88.5 0 11.7-11.3 19.5-21 20.3z"/>
    <path id="kc_bottom" fill="url(#_Radial1)" d="M373.8 373.7c-38.1 1.3-189.8 5.7-251.7 5-12 0-28.2-5.2-37.8-22.6 6.7 1.4 52.2-56 69.9-101l242.4-5.4c3.9 9 4 13.9 3.2 27.6a1644 1644 0 0 1-7 81.4c-1.2 9.5-9.8 14.7-19 15z"/>
    <path id="kc_side" fill="url(#_Linear2)" d="M109.7 41c2.7-7.4 48 193.7 48 193.7C163.5 262 89.1 366.4 83 355.2c-3.2 2.4-47.5-191.5-49.1-213-.6-7.8-.6-14.4 3.3-19.1l72.6-82z"/>
    <path id="kc_top" fill="url(#_Linear3)" d="M346.4 60c-1.8-13.2-12.3-26.6-30.7-24.4-30.7 3.8-151.1 5.1-194 0-11.6-1.3-18.8 13-17.7 24.3 4.3 43.6 36.3 161.3 50.3 195.8 6.4 15.6 17 22 30.8 24.3 38.8 6.3 162.1 3.9 195.6-1.7 10.8-1.9 22-13 17.7-24.3-13-34.2-46.5-155.4-52-194z"/>
    <path id="D2" fill="#1a3445" fill-rule="nonzero" d="M189.7 74.3a314 314 0 0 1 47.1-4.2c42.1 0 73 17.7 88.7 76 8.8 32.7 6.6 51.8-3.7 62.5l-17.6 21.3c-9 9.2-24.4 12-43.8 12-13.6 0-29.6-1.5-47-3a3.5 3.5 0 0 1-3.2-2.5c-6.2-23.3-12.4-44.6-19-69.3-6.7-24.8-12.2-47-18.8-71.8l17.3-21z" serif:id="D"/>
    <path id="D3" fill="#ecede9" fill-rule="nonzero" d="M257.4 146.1c-3.2-12-5.8-22.5-8.3-32.8h4.3c6.8 0 12.5 3.3 20.4 32.7 7.9 29.5 4 32.8-2.9 32.8h-4.3c-3-10.3-6-20.6-9.2-32.7zm-49 0c6.7 24.8 13 46 19.2 69.3a3.5 3.5 0 0 0 3.1 2.5c17.5 1.5 33.4 3 47 3 41.9 0 64.4-13 47.8-74.9-15.6-58.2-46.6-76-88.7-76a314 314 0 0 0-47 4.3c6.6 24.8 12 47 18.7 71.8z" serif:id="D"/>
  </g>
  <defs>
    <radialGradient id="_Radial1" cx="0" cy="0" r="1" gradientTransform="translate(99.8 293.4) scale(262.402)" gradientUnits="userSpaceOnUse">
      <stop offset="0" stop-color="#153144"/>
      <stop offset="1" stop-color="#2e4f66"/>
    </radialGradient>
    <linearGradient id="_Linear2" x2="1" gradientTransform="rotate(94.6 35.4 73.4) scale(312.3856)" gradientUnits="userSpaceOnUse">
      <stop offset="0" stop-color="#5a839b"/>
      <stop offset=".5" stop-color="#35566b"/>
      <stop offset="1" stop-color="#274559"/>
    </linearGradient>
    <linearGradient id="_Linear3" x2="1" gradientTransform="matrix(-13.6476 -244.784 244.547 -13.5979 242.4 283.7)" gradientUnits="userSpaceOnUse">
      <stop offset="0" stop-color="#5a839b"/>
      <stop offset="1" stop-color="#274559"/>
    </linearGradient>
  </defs>
</svg>
