<svg xmlns="http://www.w3.org/2000/svg" xmlns:serif="http://www.serif.com/" fill-rule="evenodd" stroke-linejoin="round" stroke-miterlimit="2" clip-rule="evenodd" viewBox="0 0 417 417">
  <path id="background" fill="#153144" d="M0 0h416.67v416.67H0z"/>
  <g id="keycap">
    <path id="kc_stroke" fill="#fff" d="M368.88 381.29c-47.51 4.25-215.08 9.34-264.8 5.83-14.19-1-28.2-13.44-33.5-26.86-19.76-50.08-42.9-166.24-49.77-220.76-.84-6.66-.6-14.93 3.39-19.84v-.01c.2-.23.38-.46.58-.67l72.94-83.24a20.64 20.64 0 0 1 15.45-7.28c71.8 4.97 137 4.1 197.18 0 16.52-1.13 27.94 9.07 31.25 25.06 12.52 60.5 33.59 145.49 51.9 196.83 2.2 6.19 3.4 16.04 2.77 25.48-2.47 36.41-7.1 85.76-7.1 85.76-.1 11.35-10.98 18.87-20.29 19.7z"/>
    <path id="kc_bottom" fill="url(#_Radial1)" d="M360.27 368.61c-36.94 1.25-183.88 5.51-243.92 4.89-11.58-.12-27.32-5.09-36.6-22.02 6.48 1.36 50.53-54.24 67.68-97.74l234.97-5.33c3.73 8.77 3.82 13.47 3.03 26.77-1.52 25.37-4.49 59.79-6.78 78.87-1.1 9.15-9.47 14.26-18.38 14.56z"/>
    <path id="kc_side" fill="url(#_Linear2)" d="M104.35 46.23c2.64-7.2 46.56 187.68 46.56 187.68 5.6 26.32-65.93 128.3-71.15 117.57-11.38-23.4-46.52-182.92-48.99-207.26-.76-7.54-.57-13.9 3.21-18.48.18-.22 70.37-79.51 70.37-79.51z"/>
    <path id="kc_top" fill="url(#_Linear3)" d="M333.74 64.5c-1.8-12.71-11.96-25.68-29.8-23.5-29.72 3.64-146.43 4.91-187.88 0-11.35-1.34-18.26 12.51-17.2 23.5 4.11 42.22 35.1 156.28 48.75 189.74 6.14 15.07 16.47 21.34 29.78 23.5 37.59 6.12 157.13 3.8 189.55-1.65 10.46-1.75 21.37-12.5 17.19-23.5-12.56-33.11-45.09-150.59-50.4-188.08z"/>
    <path id="D" fill="#1a3445" fill-rule="nonzero" d="M181.91 78.45c15.35-2.48 32.2-4.08 45.62-4.08 40.78 0 70.8 17.16 85.91 73.59 8.52 31.8 6.4 50.27-3.51 60.6 0 0-15.98 19.5-17.09 20.62-8.82 8.94-23.62 11.65-42.47 11.65-13.18 0-28.63-1.43-45.57-2.88a3.36 3.36 0 0 1-3.03-2.4c-6.05-22.56-12.06-43.19-18.49-67.19-6.43-24-11.74-45.6-18.16-69.58l16.8-20.33z"/>
    <path id="D1" fill="#ecede9" fill-rule="nonzero" d="M247.5 148.04a1403.01 1403.01 0 0 1-8.03-31.77h4.11c6.63 0 12.12 3.18 19.76 31.69 7.66 28.59 3.87 31.77-2.75 31.77h-4.17c-2.9-9.99-5.78-20.02-8.91-31.7zm-47.42 0c6.43 24 12.44 44.62 18.48 67.19a3.36 3.36 0 0 0 3.04 2.4c16.93 1.44 32.4 2.88 45.57 2.88 40.54 0 62.35-12.56 46.27-72.55-15.12-56.43-45.13-73.59-85.9-73.59-13.42 0-30.28 1.6-45.63 4.08 6.43 23.99 11.74 45.6 18.17 69.59z" serif:id="D"/>
  </g>
  <defs>
    <radialGradient id="_Radial1" cx="0" cy="0" r="1" gradientTransform="translate(94.74 290.74) scale(254.272)" gradientUnits="userSpaceOnUse">
      <stop offset="0" stop-color="#153144"/>
      <stop offset="1" stop-color="#2e4f66"/>
    </radialGradient>
    <linearGradient id="_Linear2" x2="1" gradientTransform="rotate(94.57 30.39 73.48) scale(302.7059)" gradientUnits="userSpaceOnUse">
      <stop offset="0" stop-color="#5a839b"/>
      <stop offset=".53" stop-color="#35566b"/>
      <stop offset="1" stop-color="#274559"/>
    </linearGradient>
    <linearGradient id="_Linear3" x2="1" gradientTransform="matrix(-13.2247 -237.199 236.969 -13.1766 232.94 281.38)" gradientUnits="userSpaceOnUse">
      <stop offset="0" stop-color="#5a839b"/>
      <stop offset="1" stop-color="#274559"/>
    </linearGradient>
  </defs>
</svg>